{
	"asset":{
		"generator":"Khronos glTF Blender I/O v4.1.38",
		"version":"2.0"
	},
	"extensionsUsed":[
		"KHR_materials_specular",
		"KHR_materials_ior",
		"EXT_texture_webp"
	],
	"scene":0,
	"scenes":[
		{
			"name":"Scene",
			"nodes":[
				0,
				1,
				2,
				3,
				4,
				5,
				6,
				7,
				8,
				9,
				10
			]
		}
	],
	"nodes":[
		{
			"mesh":0,
			"name":"Link007(*Back post).001",
			"translation":[
				-0.12265568971633911,
				0.4231297969818115,
				-0.6348641514778137
			]
		},
		{
			"mesh":1,
			"name":"Link006(*Front Leg).001",
			"translation":[
				-0.12265539169311523,
				0.2561069130897522,
				-0.24488985538482666
			]
		},
		{
			"mesh":2,
			"name":"Link005(*Side Rail).001",
			"translation":[
				-0.12266707420349121,
				0.41018280386924744,
				-0.3362928330898285
			]
		},
		{
			"mesh":3,
			"name":"Link004(*Back post).001",
			"rotation":[
				0,
				0.7071067094802856,
				0,
				0.7071068286895752
			],
			"translation":[
				-0.5531861782073975,
				0.4440996050834656,
				-0.6348353028297424
			]
		},
		{
			"mesh":4,
			"name":"Link003(*Front Leg).001",
			"rotation":[
				0,
				0.7071067094802856,
				0,
				0.7071068286895752
			],
			"translation":[
				-0.5526552796363831,
				0.22398057579994202,
				-0.23869645595550537
			]
		},
		{
			"mesh":5,
			"name":"Link002(*Side Rail).001",
			"translation":[
				-0.5526654124259949,
				0.4110427796840668,
				-0.3161264955997467
			]
		},
		{
			"mesh":6,
			"name":"Body004.001",
			"translation":[
				-0.3367552161216736,
				0.41487929224967957,
				-0.5797805786132812
			]
		},
		{
			"mesh":7,
			"name":"Body003.001",
			"translation":[
				-0.3367552161216736,
				0.4188683032989502,
				-0.4655502140522003
			]
		},
		{
			"mesh":8,
			"name":"Body002.001",
			"translation":[
				-0.3367552161216736,
				0.42285728454589844,
				-0.3513198792934418
			]
		},
		{
			"mesh":9,
			"name":"Body001.001",
			"translation":[
				-0.33675530552864075,
				0.7456926703453064,
				-0.6399247646331787
			]
		},
		{
			"mesh":10,
			"name":"Body.001",
			"translation":[
				-0.33675533533096313,
				0.42684638500213623,
				-0.23708948493003845
			]
		}
	],
	"materials":[
		{
			"doubleSided":true,
			"extensions":{
				"KHR_materials_specular":{
					"specularFactor":0,
					"specularColorFactor":[
						0.0,
						0.0,
						0.0
					]
				},
				"KHR_materials_ior":{
					"ior":1
				}
			},
			"name":"UltimateWood.LightOak.Z.004",
			"pbrMetallicRoughness":{
				"baseColorTexture":{
					"index":0
				},
				"metallicFactor":0.5,
				"roughnessFactor":0.5
			}
		},
		{
			"doubleSided":true,
			"extensions":{
				"KHR_materials_specular":{
					"specularFactor":0,
					"specularColorFactor":[
						0.0,
						0.0,
						0.0
					]
				},
				"KHR_materials_ior":{
					"ior":1
				}
			},
			"name":"UltimateWood.LightOak.Z.005",
			"pbrMetallicRoughness":{
				"baseColorTexture":{
					"index":1
				},
				"metallicFactor":0.5226585865020752,
				"roughnessFactor":0.5
			}
		},
		{
			"doubleSided":true,
			"extensions":{
				"KHR_materials_specular":{
					"specularFactor":0,
					"specularColorFactor":[
						0.0,
						0.0,
						0.0
					]
				},
				"KHR_materials_ior":{
					"ior":1
				}
			},
			"name":"UltimateWood.LightOak.Y.002",
			"pbrMetallicRoughness":{
				"baseColorTexture":{
					"index":2
				},
				"metallicFactor":0.5,
				"roughnessFactor":0.5
			}
		},
		{
			"doubleSided":true,
			"extensions":{
				"KHR_materials_specular":{
					"specularFactor":0,
					"specularColorFactor":[
						0.0,
						0.0,
						0.0
					]
				},
				"KHR_materials_ior":{
					"ior":1
				}
			},
			"name":"UltimateWood.LightOak.Z.006",
			"pbrMetallicRoughness":{
				"baseColorTexture":{
					"index":3
				},
				"metallicFactor":0.5,
				"roughnessFactor":0.5
			}
		},
		{
			"doubleSided":true,
			"extensions":{
				"KHR_materials_specular":{
					"specularFactor":0,
					"specularColorFactor":[
						0.0,
						0.0,
						0.0
					]
				},
				"KHR_materials_ior":{
					"ior":1
				}
			},
			"name":"UltimateWood.LightOak.Z.007",
			"pbrMetallicRoughness":{
				"baseColorTexture":{
					"index":4
				},
				"metallicFactor":0.5,
				"roughnessFactor":0.5
			}
		},
		{
			"doubleSided":true,
			"extensions":{
				"KHR_materials_specular":{
					"specularFactor":0,
					"specularColorFactor":[
						0.0,
						0.0,
						0.0
					]
				},
				"KHR_materials_ior":{
					"ior":1
				}
			},
			"name":"UltimateWood.LightOak.Y.003",
			"pbrMetallicRoughness":{
				"baseColorTexture":{
					"index":5
				},
				"metallicFactor":0.5,
				"roughnessFactor":0.5
			}
		},
		{
			"doubleSided":true,
			"extensions":{
				"KHR_materials_specular":{
					"specularFactor":0,
					"specularColorFactor":[
						0.0,
						0.0,
						0.0
					]
				},
				"KHR_materials_ior":{
					"ior":1
				}
			},
			"name":"UltimateWood.LightOak.X.004",
			"pbrMetallicRoughness":{
				"baseColorTexture":{
					"index":6
				},
				"metallicFactor":0.5,
				"roughnessFactor":0.5
			}
		},
		{
			"doubleSided":true,
			"extensions":{
				"KHR_materials_specular":{
					"specularFactor":0,
					"specularColorFactor":[
						0.0,
						0.0,
						0.0
					]
				},
				"KHR_materials_ior":{
					"ior":1
				}
			},
			"name":"UltimateWood.LightOak.X.007",
			"pbrMetallicRoughness":{
				"baseColorTexture":{
					"index":7
				},
				"metallicFactor":0.5,
				"roughnessFactor":0.5
			}
		},
		{
			"doubleSided":true,
			"extensions":{
				"KHR_materials_specular":{
					"specularFactor":0,
					"specularColorFactor":[
						0.0,
						0.0,
						0.0
					]
				},
				"KHR_materials_ior":{
					"ior":1
				}
			},
			"name":"UltimateWood.LightOak.X.008",
			"pbrMetallicRoughness":{
				"baseColorTexture":{
					"index":8
				},
				"metallicFactor":0.5,
				"roughnessFactor":0.5
			}
		},
		{
			"doubleSided":true,
			"extensions":{
				"KHR_materials_specular":{
					"specularFactor":0,
					"specularColorFactor":[
						0.0,
						0.0,
						0.0
					]
				},
				"KHR_materials_ior":{
					"ior":1
				}
			},
			"name":"UltimateWood.LightOak.X.009",
			"pbrMetallicRoughness":{
				"baseColorTexture":{
					"index":9
				},
				"metallicFactor":0.5,
				"roughnessFactor":0.5
			}
		},
		{
			"doubleSided":true,
			"extensions":{
				"KHR_materials_specular":{
					"specularFactor":0,
					"specularColorFactor":[
						0.0,
						0.0,
						0.0
					]
				},
				"KHR_materials_ior":{
					"ior":1
				}
			},
			"name":"UltimateWood.LightOak.X.010",
			"pbrMetallicRoughness":{
				"baseColorTexture":{
					"index":10
				},
				"metallicFactor":0.5,
				"roughnessFactor":0.5
			}
		}
	],
	"meshes":[
		{
			"name":"Link007(*Back post).002",
			"primitives":[
				{
					"attributes":{
						"POSITION":0,
						"NORMAL":1,
						"TEXCOORD_0":2
					},
					"indices":3,
					"material":0
				}
			]
		},
		{
			"name":"Link006(*Front Leg).002",
			"primitives":[
				{
					"attributes":{
						"POSITION":4,
						"NORMAL":5,
						"TEXCOORD_0":6
					},
					"indices":7,
					"material":1
				}
			]
		},
		{
			"name":"Link005(*Side Rail).002",
			"primitives":[
				{
					"attributes":{
						"POSITION":8,
						"NORMAL":9,
						"TEXCOORD_0":10
					},
					"indices":11,
					"material":2
				}
			]
		},
		{
			"name":"Link004(*Back post).002",
			"primitives":[
				{
					"attributes":{
						"POSITION":12,
						"NORMAL":13,
						"TEXCOORD_0":14
					},
					"indices":15,
					"material":3
				}
			]
		},
		{
			"name":"Link003(*Front Leg).002",
			"primitives":[
				{
					"attributes":{
						"POSITION":16,
						"NORMAL":17,
						"TEXCOORD_0":18
					},
					"indices":19,
					"material":4
				}
			]
		},
		{
			"name":"Link002(*Side Rail).002",
			"primitives":[
				{
					"attributes":{
						"POSITION":20,
						"NORMAL":21,
						"TEXCOORD_0":22
					},
					"indices":23,
					"material":5
				}
			]
		},
		{
			"name":"Body004.001",
			"primitives":[
				{
					"attributes":{
						"POSITION":24,
						"NORMAL":25,
						"TEXCOORD_0":26
					},
					"indices":27,
					"material":6
				}
			]
		},
		{
			"name":"Body003.001",
			"primitives":[
				{
					"attributes":{
						"POSITION":28,
						"NORMAL":29,
						"TEXCOORD_0":30
					},
					"indices":31,
					"material":7
				}
			]
		},
		{
			"name":"Body002.002",
			"primitives":[
				{
					"attributes":{
						"POSITION":32,
						"NORMAL":33,
						"TEXCOORD_0":34
					},
					"indices":35,
					"material":8
				}
			]
		},
		{
			"name":"Body001.001",
			"primitives":[
				{
					"attributes":{
						"POSITION":36,
						"NORMAL":37,
						"TEXCOORD_0":38
					},
					"indices":39,
					"material":9
				}
			]
		},
		{
			"name":"Body.001",
			"primitives":[
				{
					"attributes":{
						"POSITION":40,
						"NORMAL":41,
						"TEXCOORD_0":42
					},
					"indices":43,
					"material":10
				}
			]
		}
	],
	"textures":[
		{
			"extensions":{
				"EXT_texture_webp":{
					"source":0
				}
			},
			"sampler":0,
			"source":1
		},
		{
			"extensions":{
				"EXT_texture_webp":{
					"source":2
				}
			},
			"sampler":0,
			"source":3
		},
		{
			"extensions":{
				"EXT_texture_webp":{
					"source":4
				}
			},
			"sampler":0,
			"source":5
		},
		{
			"extensions":{
				"EXT_texture_webp":{
					"source":6
				}
			},
			"sampler":0,
			"source":7
		},
		{
			"extensions":{
				"EXT_texture_webp":{
					"source":8
				}
			},
			"sampler":0,
			"source":9
		},
		{
			"extensions":{
				"EXT_texture_webp":{
					"source":10
				}
			},
			"sampler":0,
			"source":11
		},
		{
			"extensions":{
				"EXT_texture_webp":{
					"source":12
				}
			},
			"sampler":0,
			"source":13
		},
		{
			"extensions":{
				"EXT_texture_webp":{
					"source":14
				}
			},
			"sampler":0,
			"source":15
		},
		{
			"extensions":{
				"EXT_texture_webp":{
					"source":16
				}
			},
			"sampler":0,
			"source":17
		},
		{
			"extensions":{
				"EXT_texture_webp":{
					"source":18
				}
			},
			"sampler":0,
			"source":19
		},
		{
			"extensions":{
				"EXT_texture_webp":{
					"source":20
				}
			},
			"sampler":0,
			"source":21
		}
	],
	"images":[
		{
			"mimeType":"image/webp",
			"name":"POST 2",
			"uri":"POST%202.webp"
		},
		{
			"mimeType":"image/png",
			"name":"POST 2",
			"uri":"POST%202.png"
		},
		{
			"mimeType":"image/webp",
			"name":"LEG 2",
			"uri":"LEG%202.webp"
		},
		{
			"mimeType":"image/png",
			"name":"LEG 2",
			"uri":"LEG%202.png"
		},
		{
			"mimeType":"image/webp",
			"name":"SIDE2",
			"uri":"SIDE2.webp"
		},
		{
			"mimeType":"image/png",
			"name":"SIDE2",
			"uri":"SIDE2.png"
		},
		{
			"mimeType":"image/webp",
			"name":"POST 1",
			"uri":"POST%201.webp"
		},
		{
			"mimeType":"image/png",
			"name":"POST 1",
			"uri":"POST%201.png"
		},
		{
			"mimeType":"image/webp",
			"name":"LEG 1",
			"uri":"LEG%201.webp"
		},
		{
			"mimeType":"image/png",
			"name":"LEG 1",
			"uri":"LEG%201.png"
		},
		{
			"mimeType":"image/webp",
			"name":"SIDE1",
			"uri":"SIDE1.webp"
		},
		{
			"mimeType":"image/png",
			"name":"SIDE1",
			"uri":"SIDE1.png"
		},
		{
			"mimeType":"image/webp",
			"name":"S4",
			"uri":"S4.webp"
		},
		{
			"mimeType":"image/png",
			"name":"S4",
			"uri":"S4.png"
		},
		{
			"mimeType":"image/webp",
			"name":"S3",
			"uri":"S3.webp"
		},
		{
			"mimeType":"image/png",
			"name":"S3",
			"uri":"S3.png"
		},
		{
			"mimeType":"image/webp",
			"name":"S2",
			"uri":"S2.webp"
		},
		{
			"mimeType":"image/png",
			"name":"S2",
			"uri":"S2.png"
		},
		{
			"mimeType":"image/webp",
			"name":"S5",
			"uri":"S5.webp"
		},
		{
			"mimeType":"image/png",
			"name":"S5",
			"uri":"S5.png"
		},
		{
			"mimeType":"image/webp",
			"name":"S1",
			"uri":"S1.webp"
		},
		{
			"mimeType":"image/png",
			"name":"S1",
			"uri":"S1.png"
		}
	],
	"accessors":[
		{
			"bufferView":0,
			"componentType":5126,
			"count":942,
			"max":[
				0.014287948608398438,
				0.38848060369491577,
				0.050964295864105225
			],
			"min":[
				-0.014287054538726807,
				-0.4231297969818115,
				-0.07472610473632812
			],
			"type":"VEC3"
		},
		{
			"bufferView":1,
			"componentType":5126,
			"count":942,
			"type":"VEC3"
		},
		{
			"bufferView":2,
			"componentType":5126,
			"count":942,
			"type":"VEC2"
		},
		{
			"bufferView":3,
			"componentType":5123,
			"count":1584,
			"type":"SCALAR"
		},
		{
			"bufferView":4,
			"componentType":5126,
			"count":158,
			"max":[
				0.01428765058517456,
				0.15517055988311768,
				0.058901846408843994
			],
			"min":[
				-0.014287412166595459,
				-0.2561069130897522,
				-0.05654224753379822
			],
			"type":"VEC3"
		},
		{
			"bufferView":5,
			"componentType":5126,
			"count":158,
			"type":"VEC3"
		},
		{
			"bufferView":6,
			"componentType":5126,
			"count":158,
			"type":"VEC2"
		},
		{
			"bufferView":7,
			"componentType":5123,
			"count":312,
			"type":"SCALAR"
		},
		{
			"bufferView":8,
			"componentType":5126,
			"count":414,
			"max":[
				0.014299333095550537,
				0.03366515040397644,
				0.15030482411384583
			],
			"min":[
				-0.014275729656219482,
				-0.034802913665771484,
				-0.2817123234272003
			],
			"type":"VEC3"
		},
		{
			"bufferView":9,
			"componentType":5126,
			"count":414,
			"type":"VEC3"
		},
		{
			"bufferView":10,
			"componentType":5126,
			"count":414,
			"type":"VEC2"
		},
		{
			"bufferView":11,
			"componentType":5123,
			"count":726,
			"type":"SCALAR"
		},
		{
			"bufferView":12,
			"componentType":5126,
			"count":1051,
			"max":[
				0.07475495338439941,
				0.3675107955932617,
				0.014818444848060608
			],
			"min":[
				-0.050935447216033936,
				-0.4440996050834656,
				-0.013756543397903442
			],
			"type":"VEC3"
		},
		{
			"bufferView":13,
			"componentType":5126,
			"count":1051,
			"type":"VEC3"
		},
		{
			"bufferView":14,
			"componentType":5126,
			"count":1051,
			"type":"VEC2"
		},
		{
			"bufferView":15,
			"componentType":5123,
			"count":1746,
			"type":"SCALAR"
		},
		{
			"bufferView":16,
			"componentType":5126,
			"count":122,
			"max":[
				0.0627356618642807,
				0.18729689717292786,
				0.014287501573562622
			],
			"min":[
				-0.05270843952894211,
				-0.22398057579994202,
				-0.014287486672401428
			],
			"type":"VEC3"
		},
		{
			"bufferView":17,
			"componentType":5126,
			"count":122,
			"type":"VEC3"
		},
		{
			"bufferView":18,
			"componentType":5126,
			"count":122,
			"type":"VEC2"
		},
		{
			"bufferView":19,
			"componentType":5123,
			"count":312,
			"type":"SCALAR"
		},
		{
			"bufferView":20,
			"componentType":5126,
			"count":547,
			"max":[
				0.014297664165496826,
				0.032805174589157104,
				0.13013848662376404
			],
			"min":[
				-0.014277353882789612,
				-0.03566288948059082,
				-0.3018786609172821
			],
			"type":"VEC3"
		},
		{
			"bufferView":21,
			"componentType":5126,
			"count":547,
			"type":"VEC3"
		},
		{
			"bufferView":22,
			"componentType":5126,
			"count":547,
			"type":"VEC2"
		},
		{
			"bufferView":23,
			"componentType":5123,
			"count":915,
			"type":"SCALAR"
		},
		{
			"bufferView":24,
			"componentType":5126,
			"count":96,
			"max":[
				0.20319999754428864,
				0.011224746704101562,
				0.051034167408943176
			],
			"min":[
				-0.20319999754428864,
				-0.011224746704101562,
				-0.05103413760662079
			],
			"type":"VEC3"
		},
		{
			"bufferView":25,
			"componentType":5126,
			"count":96,
			"type":"VEC3"
		},
		{
			"bufferView":26,
			"componentType":5126,
			"count":96,
			"type":"VEC2"
		},
		{
			"bufferView":27,
			"componentType":5123,
			"count":180,
			"type":"SCALAR"
		},
		{
			"bufferView":28,
			"componentType":5126,
			"count":96,
			"max":[
				0.20319999754428864,
				0.011224753223359585,
				0.05103413388133049
			],
			"min":[
				-0.20319999754428864,
				-0.011224769987165928,
				-0.0510341115295887
			],
			"type":"VEC3"
		},
		{
			"bufferView":29,
			"componentType":5126,
			"count":96,
			"type":"VEC3"
		},
		{
			"bufferView":30,
			"componentType":5126,
			"count":96,
			"type":"VEC2"
		},
		{
			"bufferView":31,
			"componentType":5123,
			"count":180,
			"type":"SCALAR"
		},
		{
			"bufferView":32,
			"componentType":5126,
			"count":96,
			"max":[
				0.20319998264312744,
				0.011224746704101562,
				0.05103415250778198
			],
			"min":[
				-0.20319999754428864,
				-0.011224746704101562,
				-0.05103406310081482
			],
			"type":"VEC3"
		},
		{
			"bufferView":33,
			"componentType":5126,
			"count":96,
			"type":"VEC3"
		},
		{
			"bufferView":34,
			"componentType":5126,
			"count":96,
			"type":"VEC2"
		},
		{
			"bufferView":35,
			"componentType":5123,
			"count":180,
			"type":"SCALAR"
		},
		{
			"bufferView":36,
			"componentType":5126,
			"count":120,
			"max":[
				0.2032000720500946,
				0.05740171670913696,
				0.021710753440856934
			],
			"min":[
				-0.20319992303848267,
				-0.057401955127716064,
				-0.021710872650146484
			],
			"type":"VEC3"
		},
		{
			"bufferView":37,
			"componentType":5126,
			"count":120,
			"type":"VEC3"
		},
		{
			"bufferView":38,
			"componentType":5126,
			"count":120,
			"type":"VEC2"
		},
		{
			"bufferView":39,
			"componentType":5123,
			"count":228,
			"type":"SCALAR"
		},
		{
			"bufferView":40,
			"componentType":5126,
			"count":96,
			"max":[
				0.203200101852417,
				0.011224687099456787,
				0.05103415250778198
			],
			"min":[
				-0.20319993793964386,
				-0.011224806308746338,
				-0.05103409290313721
			],
			"type":"VEC3"
		},
		{
			"bufferView":41,
			"componentType":5126,
			"count":96,
			"type":"VEC3"
		},
		{
			"bufferView":42,
			"componentType":5126,
			"count":96,
			"type":"VEC2"
		},
		{
			"bufferView":43,
			"componentType":5123,
			"count":180,
			"type":"SCALAR"
		}
	],
	"bufferViews":[
		{
			"buffer":0,
			"byteLength":11304,
			"byteOffset":0,
			"target":34962
		},
		{
			"buffer":0,
			"byteLength":11304,
			"byteOffset":11304,
			"target":34962
		},
		{
			"buffer":0,
			"byteLength":7536,
			"byteOffset":22608,
			"target":34962
		},
		{
			"buffer":0,
			"byteLength":3168,
			"byteOffset":30144,
			"target":34963
		},
		{
			"buffer":0,
			"byteLength":1896,
			"byteOffset":33312,
			"target":34962
		},
		{
			"buffer":0,
			"byteLength":1896,
			"byteOffset":35208,
			"target":34962
		},
		{
			"buffer":0,
			"byteLength":1264,
			"byteOffset":37104,
			"target":34962
		},
		{
			"buffer":0,
			"byteLength":624,
			"byteOffset":38368,
			"target":34963
		},
		{
			"buffer":0,
			"byteLength":4968,
			"byteOffset":38992,
			"target":34962
		},
		{
			"buffer":0,
			"byteLength":4968,
			"byteOffset":43960,
			"target":34962
		},
		{
			"buffer":0,
			"byteLength":3312,
			"byteOffset":48928,
			"target":34962
		},
		{
			"buffer":0,
			"byteLength":1452,
			"byteOffset":52240,
			"target":34963
		},
		{
			"buffer":0,
			"byteLength":12612,
			"byteOffset":53692,
			"target":34962
		},
		{
			"buffer":0,
			"byteLength":12612,
			"byteOffset":66304,
			"target":34962
		},
		{
			"buffer":0,
			"byteLength":8408,
			"byteOffset":78916,
			"target":34962
		},
		{
			"buffer":0,
			"byteLength":3492,
			"byteOffset":87324,
			"target":34963
		},
		{
			"buffer":0,
			"byteLength":1464,
			"byteOffset":90816,
			"target":34962
		},
		{
			"buffer":0,
			"byteLength":1464,
			"byteOffset":92280,
			"target":34962
		},
		{
			"buffer":0,
			"byteLength":976,
			"byteOffset":93744,
			"target":34962
		},
		{
			"buffer":0,
			"byteLength":624,
			"byteOffset":94720,
			"target":34963
		},
		{
			"buffer":0,
			"byteLength":6564,
			"byteOffset":95344,
			"target":34962
		},
		{
			"buffer":0,
			"byteLength":6564,
			"byteOffset":101908,
			"target":34962
		},
		{
			"buffer":0,
			"byteLength":4376,
			"byteOffset":108472,
			"target":34962
		},
		{
			"buffer":0,
			"byteLength":1830,
			"byteOffset":112848,
			"target":34963
		},
		{
			"buffer":0,
			"byteLength":1152,
			"byteOffset":114680,
			"target":34962
		},
		{
			"buffer":0,
			"byteLength":1152,
			"byteOffset":115832,
			"target":34962
		},
		{
			"buffer":0,
			"byteLength":768,
			"byteOffset":116984,
			"target":34962
		},
		{
			"buffer":0,
			"byteLength":360,
			"byteOffset":117752,
			"target":34963
		},
		{
			"buffer":0,
			"byteLength":1152,
			"byteOffset":118112,
			"target":34962
		},
		{
			"buffer":0,
			"byteLength":1152,
			"byteOffset":119264,
			"target":34962
		},
		{
			"buffer":0,
			"byteLength":768,
			"byteOffset":120416,
			"target":34962
		},
		{
			"buffer":0,
			"byteLength":360,
			"byteOffset":121184,
			"target":34963
		},
		{
			"buffer":0,
			"byteLength":1152,
			"byteOffset":121544,
			"target":34962
		},
		{
			"buffer":0,
			"byteLength":1152,
			"byteOffset":122696,
			"target":34962
		},
		{
			"buffer":0,
			"byteLength":768,
			"byteOffset":123848,
			"target":34962
		},
		{
			"buffer":0,
			"byteLength":360,
			"byteOffset":124616,
			"target":34963
		},
		{
			"buffer":0,
			"byteLength":1440,
			"byteOffset":124976,
			"target":34962
		},
		{
			"buffer":0,
			"byteLength":1440,
			"byteOffset":126416,
			"target":34962
		},
		{
			"buffer":0,
			"byteLength":960,
			"byteOffset":127856,
			"target":34962
		},
		{
			"buffer":0,
			"byteLength":456,
			"byteOffset":128816,
			"target":34963
		},
		{
			"buffer":0,
			"byteLength":1152,
			"byteOffset":129272,
			"target":34962
		},
		{
			"buffer":0,
			"byteLength":1152,
			"byteOffset":130424,
			"target":34962
		},
		{
			"buffer":0,
			"byteLength":768,
			"byteOffset":131576,
			"target":34962
		},
		{
			"buffer":0,
			"byteLength":360,
			"byteOffset":132344,
			"target":34963
		}
	],
	"samplers":[
		{
			"magFilter":9729,
			"minFilter":9987,
			"wrapS":33648,
			"wrapT":33648
		}
	],
	"buffers":[
		{
			"byteLength":132704,
			"uri":"justCHAIR.bin"
		}
	]
}
